<svg xmlns="http://www.w3.org/2000/svg" xmlns:xlink="http://www.w3.org/1999/xlink" width="48" zoomAndPan="magnify" viewBox="0 0 36 36.000001" height="48" preserveAspectRatio="xMidYMid meet" version="1.0"><defs><g/><clipPath id="6c5f502916"><path d="M 2.4375 7 L 14 7 L 14 27 L 2.4375 27 Z M 2.4375 7 " clip-rule="nonzero"/></clipPath><clipPath id="e2cda43db7"><path d="M 33 8 L 33.816406 8 L 33.816406 26 L 33 26 Z M 33 8 " clip-rule="nonzero"/></clipPath></defs><g clip-path="url(#6c5f502916)"><g fill="#a100ff" fill-opacity="1"><g transform="translate(2.309623, 25.933791)"><g><path d="M 7.984375 -18.367188 L 11.222656 -18.367188 L 11.222656 -4.835938 C 11.222656 -2.675781 10.417969 -1.125 8.804688 -0.183594 C 7.945312 0.304688 6.933594 0.546875 5.777344 0.546875 C 3.601562 0.546875 2.050781 -0.214844 1.113281 -1.742188 C 0.636719 -2.550781 0.398438 -3.488281 0.398438 -4.546875 L 0.398438 -6.566406 L 3.683594 -6.566406 L 3.683594 -4.953125 C 3.683594 -3.457031 4.199219 -2.59375 5.230469 -2.367188 C 5.402344 -2.328125 5.59375 -2.308594 5.800781 -2.308594 C 6.554688 -2.308594 7.128906 -2.59375 7.519531 -3.164062 C 7.828125 -3.613281 7.984375 -4.4375 7.984375 -5.640625 Z M 7.984375 -18.367188 "/></g></g></g></g><g fill="#a100ff" fill-opacity="1"><g transform="translate(14.313629, 25.933791)"><g><path d="M 2.132812 0 L 2.132812 -18.367188 L 9.375 -18.367188 C 12.175781 -18.367188 14.257812 -17.234375 15.628906 -14.96875 L 16.171875 -13.914062 C 16.734375 -12.550781 17.015625 -10.980469 17.015625 -9.203125 C 17.015625 -5.714844 16.023438 -3.171875 14.042969 -1.570312 C 12.789062 -0.523438 11.230469 0 9.375 0 Z M 5.363281 -2.949219 L 9 -2.949219 C 11.511719 -2.949219 13.035156 -4.253906 13.574219 -6.867188 C 13.710938 -7.546875 13.777344 -8.3125 13.777344 -9.167969 C 13.777344 -12.804688 12.566406 -14.851562 10.148438 -15.3125 C 9.78125 -15.382812 9.398438 -15.417969 9 -15.417969 L 5.363281 -15.417969 Z M 5.363281 -2.949219 "/></g></g></g><g clip-path="url(#e2cda43db7)"><g fill="#ffffff" fill-opacity="1"><g transform="translate(31.646409, 25.933791)"><g><path d="M 3.59375 -12.484375 L 3.59375 0 L 1.609375 0 L 1.609375 -12.484375 Z M 3.59375 -17.375 L 3.59375 -14.875 L 1.578125 -14.875 L 1.578125 -17.375 Z M 3.59375 -17.375 "/></g></g></g></g></svg>